<svg fill="#000000" xmlns="http://www.w3.org/2000/svg"  viewBox="0 0 50 50" width="100px" height="100px"><path d="M 5.4648438 2 A 1.0001 1.0001 0 0 0 4.46875 3.0898438 L 7.9882812 42.515625 A 1.0001 1.0001 0 0 0 8.7089844 43.388672 L 24.71875 47.960938 A 1.0001 1.0001 0 0 0 25.267578 47.960938 L 41.292969 43.388672 A 1.0001 1.0001 0 0 0 42.013672 42.515625 L 45.53125 3.0898438 A 1.0001 1.0001 0 0 0 44.535156 2 L 5.4648438 2 z M 6.5585938 4 L 43.441406 4 L 40.083984 41.654297 L 24.994141 45.960938 L 9.9199219 41.654297 L 6.5585938 4 z M 19 10 A 1.0001 1.0001 0 0 0 18 11 L 18 29.628906 L 12.267578 28.041016 A 1.0001 1.0001 0 0 0 11 29.003906 L 11 33.949219 A 1.0001 1.0001 0 0 0 11.732422 34.912109 L 22.732422 37.962891 A 1.0001 1.0001 0 0 0 24 37 L 24 11 A 1.0001 1.0001 0 0 0 23 10 L 19 10 z M 27 10 A 1.0001 1.0001 0 0 0 26 11 L 26 28 A 1.0001 1.0001 0 0 0 27.169922 28.986328 L 32.917969 27.996094 L 32.798828 29.767578 L 26.734375 31.435547 A 1.0001 1.0001 0 0 0 26 32.398438 L 26 37 A 1.0001 1.0001 0 0 0 27.265625 37.964844 L 37.265625 35.214844 A 1.0001 1.0001 0 0 0 37.996094 34.335938 L 39.050781 22.085938 A 1.0001 1.0001 0 0 0 37.914062 21.009766 L 32 21.847656 L 32 16 L 38.654297 16 A 1.0001 1.0001 0 0 0 39.650391 15.085938 L 39.996094 11.085938 A 1.0001 1.0001 0 0 0 39 10 L 27 10 z M 20 12 L 22 12 L 22 35.685547 L 13 33.189453 L 13 30.318359 L 18.732422 31.908203 A 1.0001 1.0001 0 0 0 20 30.945312 L 20 12 z M 28 12 L 37.910156 12 L 37.736328 14 L 31 14 A 1.0001 1.0001 0 0 0 30 15 L 30 23 A 1.0001 1.0001 0 0 0 31.140625 23.990234 L 36.951172 23.166016 L 36.0625 33.470703 L 28 35.6875 L 28 33.162109 L 34.015625 31.507812 A 1.0001 1.0001 0 0 0 34.748047 30.611328 L 34.998047 26.861328 A 1.0001 1.0001 0 0 0 33.830078 25.808594 L 28 26.8125 L 28 12 z"/></svg>