<svg fill="#000000" xmlns="http://www.w3.org/2000/svg"  viewBox="0 0 50 50" width="100px" height="100px"><path d="M 32.046875 2.9726562 A 1.0001 1.0001 0 0 0 31.785156 3 L 18.148438 3 A 1.0001 1.0001 0 0 0 17.949219 2.9882812 A 1.0001 1.0001 0 0 0 17.064453 3.6191406 L 10.212891 15.365234 A 1.0001 1.0001 0 0 0 10.210938 15.367188 A 1.0001 1.0001 0 0 0 10.208984 16.628906 L 17.136719 28.503906 A 1.0001 1.0001 0 0 0 18.863281 28.503906 L 25.574219 17 L 39 17 A 1.0001 1.0001 0 0 0 39.863281 15.496094 L 32.972656 3.6835938 A 1.0001 1.0001 0 0 0 32.046875 2.9726562 z M 19.740234 5 L 30.259766 5 L 25 14.015625 L 19.740234 5 z M 18 5.984375 L 23.259766 15 L 12.742188 15 L 18 5.984375 z M 32 5.984375 L 37.259766 15 L 26.740234 15 L 32 5.984375 z M 12.742188 17 L 23.259766 17 L 18 26.015625 L 12.742188 17 z M 31.943359 21.001953 A 1.0001 1.0001 0 0 0 31.136719 21.496094 L 24.425781 33 L 11 33 A 1.0001 1.0001 0 0 0 10.136719 34.503906 L 17.027344 46.316406 A 1.0001 1.0001 0 0 0 18.214844 47 L 31.789062 47 A 1.0001 1.0001 0 0 0 32.970703 46.318359 L 39.787109 34.634766 L 39.789062 34.632812 A 1.0001 1.0001 0 0 0 39.791016 33.371094 L 32.863281 21.496094 A 1.0001 1.0001 0 0 0 31.943359 21.001953 z M 32 23.984375 L 37.257812 33 L 26.740234 33 L 32 23.984375 z M 12.740234 35 L 23.259766 35 L 18 44.015625 L 12.740234 35 z M 26.740234 35 L 37.257812 35 L 32 44.015625 L 26.740234 35 z M 25 35.984375 L 30.259766 45 L 19.740234 45 L 25 35.984375 z"/></svg>